<?xml version="1.0" encoding="iso-8859-1"?>
<!-- Generator: Adobe Illustrator 18.1.1, SVG Export Plug-In . SVG Version: 6.00 Build 0)  -->
<svg version="1.1" id="Capa_1" xmlns="http://www.w3.org/2000/svg" xmlns:xlink="http://www.w3.org/1999/xlink" x="0px" y="0px"
	 viewBox="0 0 259.526 259.526" style="enable-background:new 0 0 259.526 259.526;" xml:space="preserve">
<g id="Share">
	<path style="fill-rule:evenodd;clip-rule:evenodd;" d="M201.357,161.085c-11.49,0-22.035,3.97-30.411,10.57l-63.771-37.643
		c0.12-1.403,0.215-2.814,0.215-4.248c0-1.434-0.094-2.845-0.215-4.248l63.771-37.644c8.376,6.6,18.921,10.569,30.411,10.569
		c27.18,0,49.22-22.036,49.22-49.221c0-27.184-22.04-49.22-49.22-49.22c-27.179,0-49.22,22.036-49.22,49.22
		c0,2.122,0.179,4.198,0.44,6.249L88.01,90.685c-8.284-6.336-18.606-10.142-29.839-10.142c-27.18,0-49.222,22.036-49.222,49.221
		c0,27.184,22.042,49.22,49.222,49.22c11.232,0,21.555-3.806,29.839-10.142l64.568,35.216c-0.261,2.051-0.44,4.126-0.44,6.248
		c0,27.184,22.041,49.22,49.22,49.22c27.18,0,49.22-22.037,49.22-49.22S228.537,161.085,201.357,161.085z"/>
</g>
<g>
</g>
<g>
</g>
<g>
</g>
<g>
</g>
<g>
</g>
<g>
</g>
<g>
</g>
<g>
</g>
<g>
</g>
<g>
</g>
<g>
</g>
<g>
</g>
<g>
</g>
<g>
</g>
<g>
</g>
</svg>
